<svg width="1440" height="1024" viewBox="0 0 1440 1024" fill="none" xmlns="http://www.w3.org/2000/svg">
<g clip-path="url(#clip0_2_2)">
<rect width="1440" height="1024" fill="#E3E3E3"/>
<rect x="37" y="41" width="688" height="941" fill="#E3E3E3"/>
<mask id="mask0_2_2" style="mask-type:alpha" maskUnits="userSpaceOnUse" x="53" y="57" width="656" height="910">
<rect x="53" y="57" width="656" height="910" fill="#D5D5D5"/>
</mask>
<g mask="url(#mask0_2_2)">
<rect x="-31.3288" y="-22" width="878.589" height="1068" fill="#AFAFAF"/>
<path d="M317.436 314.502C433.18 514.976 659.819 398.033 758.671 314.502L236.826 870.995L-498.565 108.734C-274.791 93.7923 201.692 114.028 317.436 314.502Z" fill="#E3E3E3"/>
<path d="M485.436 464.502C601.18 664.976 827.819 548.033 926.671 464.502L404.826 1020.99L-330.565 258.734C-106.791 243.792 369.692 264.028 485.436 464.502Z" fill="#DDDDDD"/>
<path d="M350.461 274.632C350.462 43.1443 95.7146 31.1006 -31.6589 54.0147L698.518 -167L954.255 860.833C752.991 761.886 350.461 506.12 350.461 274.632Z" fill="#E3E3E3"/>
<path d="M505.182 735.908C701.501 932.228 927.76 726.397 1016.35 598.941L584.54 1405.63L-504.025 750.828C-249.423 664.055 308.862 539.589 505.182 735.908Z" fill="#AFAFAF"/>
<path d="M520.381 653.775C797.284 641.606 825.082 382.637 804.369 254.674L1030.36 983.518L-212.568 1296.89C-83.6282 1087.59 243.477 665.944 520.381 653.775Z" fill="#FE5375"/>
</g>
<rect x="1168.89" y="-239.673" width="563.149" height="1915.64" transform="rotate(45 1168.89 -239.673)" fill="#EBEBEB"/>
<rect x="1384.22" y="-135.357" width="542.468" height="1932.12" transform="rotate(45 1384.22 -135.357)" fill="#F5F5F5"/>
</g>
<defs>
<clipPath id="clip0_2_2">
<rect width="1440" height="1024" fill="white"/>
</clipPath>
</defs>
</svg>
