<svg width="1440" height="1024" viewBox="0 0 1440 1024" fill="none" xmlns="http://www.w3.org/2000/svg">
<g clip-path="url(#clip0_2_2)">
<rect width="1440" height="1024" fill="#121212"/>
<rect x="37" y="41" width="688" height="941" fill="black"/>
<mask id="mask0_2_2" style="mask-type:alpha" maskUnits="userSpaceOnUse" x="-23" y="57" width="732" height="910">
<rect x="-23" y="57" width="732" height="910" fill="#D5D5D5"/>
</mask>
<g mask="url(#mask0_2_2)">
<rect x="-117.099" y="-22" width="980.377" height="1068" fill="#121212"/>
<path d="M272.072 314.502C401.225 514.976 654.122 398.033 764.425 314.502L182.123 870.995L-638.466 108.734C-388.767 93.7922 142.919 114.028 272.072 314.502Z" fill="black"/>
<path d="M459.536 464.502C588.689 664.976 841.585 548.033 951.889 464.502L369.587 1020.99L-451.002 258.734C-201.304 243.792 330.382 264.028 459.536 464.502Z" fill="#3F3F3F"/>
<path d="M308.923 274.632C308.923 43.1443 24.6632 31.1006 -117.467 54.0147L697.304 -167L982.669 860.833C758.087 761.886 308.923 506.12 308.923 274.632Z" fill="black"/>
<path d="M481.568 735.908C700.632 932.228 953.104 726.397 1051.96 598.941L570.121 1405.63L-644.559 750.828C-360.46 664.055 262.505 539.589 481.568 735.908Z" fill="#121212"/>
<path d="M498.529 653.775C807.512 641.606 838.531 382.637 815.418 254.674L1067.59 983.518L-319.335 1296.89C-175.457 1087.59 189.545 665.944 498.529 653.775Z" fill="#01AC8A"/>
</g>
<rect x="1168.89" y="-239.673" width="563.149" height="1915.64" transform="rotate(45 1168.89 -239.673)" fill="#242424"/>
<rect x="1403.22" y="-125" width="542.468" height="1932.12" transform="rotate(45 1403.22 -125)" fill="black"/>
</g>
<defs>
<clipPath id="clip0_2_2">
<rect width="1440" height="1024" fill="white"/>
</clipPath>
</defs>
</svg>
