<svg width="494" height="120" viewBox="0 0 494 120" fill="none" xmlns="http://www.w3.org/2000/svg">
<g filter="url(#filter0_d_13_8)">
<rect x="6" width="488" height="111" rx="27" fill="url(#paint0_linear_13_8)"/>
</g>
<path opacity="0.5" d="M35 66.5C35 59.6647 35 56.2471 37.1088 54.1235C39.2177 52 42.6118 52 49.4 52H68.6C75.3882 52 78.7822 52 80.8911 54.1235C83 56.2471 83 59.6647 83 66.5C83 73.3353 83 76.753 80.8911 78.8765C78.7822 81 75.3882 81 68.6 81H49.4C42.6118 81 39.2177 81 37.1088 78.8765C35 76.753 35 73.3353 35 66.5Z" fill="#707070"/>
<path d="M46.606 47.0995C46.606 40.1839 52.2566 34.5777 59.227 34.5777C65.1055 34.5777 70.0493 38.5666 71.4504 43.9677C71.6987 44.9245 72.6817 45.5005 73.646 45.2542C74.6105 45.008 75.1908 44.0328 74.9427 43.076C73.1414 36.1325 66.7907 31 59.227 31C50.2651 31 43 38.208 43 47.0995V52C44.0494 51.9222 45.2421 51.891 46.606 51.8784V47.0995Z" fill="#707070"/>
<defs>
<filter id="filter0_d_13_8" x="0.7" y="0" width="493.3" height="119.3" filterUnits="userSpaceOnUse" color-interpolation-filters="sRGB">
<feFlood flood-opacity="0" result="BackgroundImageFix"/>
<feColorMatrix in="SourceAlpha" type="matrix" values="0 0 0 0 0 0 0 0 0 0 0 0 0 0 0 0 0 0 127 0" result="hardAlpha"/>
<feOffset dx="-3" dy="6"/>
<feGaussianBlur stdDeviation="1.15"/>
<feComposite in2="hardAlpha" operator="out"/>
<feColorMatrix type="matrix" values="0 0 0 0 0 0 0 0 0 0 0 0 0 0 0 0 0 0 0.1 0"/>
<feBlend mode="normal" in2="BackgroundImageFix" result="effect1_dropShadow_13_8"/>
<feBlend mode="normal" in="SourceGraphic" in2="effect1_dropShadow_13_8" result="shape"/>
</filter>
<linearGradient id="paint0_linear_13_8" x1="6" y1="55.5" x2="494" y2="55.5" gradientUnits="userSpaceOnUse">
<stop stop-color="#EFEFEF"/>
<stop offset="1" stop-color="white"/>
</linearGradient>
</defs>
</svg>
